{"title":"I Still Know What You Did Last Summer 1998 BRRip 720p H264 AAC-R","uid":5904617,"size":1603323509,"categoryP":"video","categoryS":"hd___movies","magnet":"?xt=urn:btih:14855e1a9e645bb6d2bc91f7d123328d16793877&amp;dn=I+Still+Know+What+You+Did+Last+Summer+1998+BRRip+720p+H264+AAC-R&amp;tr=udp%3A%2F%2Ftracker.openbittorrent.com%3A80&amp;tr=udp%3A%2F%2Fopen.demonii.com%3A1337&amp;tr=udp%3A%2F%2Ftracker.coppersurfer.tk%3A6969&amp;tr=udp%3A%2F%2Fexodus.desync.com%3A6969","seeders":2,"leechers":1,"uploader":"deffjam555","files":12,"time":1287813377,"description":"cover\n &lt;a href=&quot;\nhttp://img254.imageshack.us/img254/3536/istillknowwhatyoudidlas.png&quot; rel=&quot;nofollow&quot; target=&quot;_NEW&quot;&gt;\nhttp://img254.imageshack.us/img254/3536/istillknowwhatyoudidlas.png&lt;/a&gt;\n\nEver since killing the Fisherman one year ago, Julie James is still\nhaunted by images of him after her, causes her relationship with Ray\nBronson to suffer further. When her best friend Karla Wilson wins free\ntickets to the Bahamas, Julie finds this a perfect opportunity to finally relax.\nBut someone is waiting for her. Someone who she thought was dead. Someone\nwho is out again for revenge.\n\nX7KXI0EY.png\n\nSOURCE: EuReKA (7.96GB) THANKS!!!\n\nav32xd6.png\n\nI Still Know What You Did Last Summer 1998 BRRip 720p H264 AAC-Rx(Phoenix-RG).mp4\nFormat : MPEG-4 / AVC\nFile size : 1.49 GiB\nDuration : 1h 40mn\nBit rate mode : Variable\nBit rate : 1 800 Kbps\nMaximum bit rate : 9 114 Kbps\nWidth : 1 280 pixels\nHeight : 536 pixels\nDisplay aspect ratio : 2.35\nFrame rate mode : Constant\nFrame rate : 23.976 fps\nResolution : 24 bits\nColorimetry : 4:2:0\nScan type : Progressive\nBits/(Pixel*Frame) : 0.109\nStream size : 1.26 GiB (85%)\n\n\n\n\nFormat : AAC / LC\nDuration : 1h 40mn\nBit rate mode : Variable\nBit rate : 323 Kbps\nMaximum bit rate : 408 Kbps\nChannel(s) : 6 channels\nChannel positions : Front: L C R, Rear: L R, LFE\nSampling rate : 48.0 KHz\nResolution : 16 bits\nStream size : 233 MiB (15%)\n\nCompatible: playstationo.png\n &lt;a href=&quot;\nhttp://www.imdb.com/title/tt0130018&quot; rel=&quot;nofollow&quot; target=&quot;_NEW&quot;&gt;\nhttp://www.imdb.com/title/tt0130018&lt;/a&gt;\nscreens &lt;a href=&quot;\nhttp://img839.imageshack.us/img839/8264/vlcsnap2010101915h39m01.png&quot; rel=&quot;nofollow&quot; target=&quot;_NEW&quot;&gt;\nhttp://img839.imageshack.us/img839/8264/vlcsnap2010101915h39m01.png&lt;/a&gt; &lt;a href=&quot;\nhttp://img35.imageshack.us/img35/2738/vlcsnap2010101915h39m24.png&quot; rel=&quot;nofollow&quot; target=&quot;_NEW&quot;&gt;\nhttp://img35.imageshack.us/img35/2738/vlcsnap2010101915h39m24.png&lt;/a&gt; &lt;a href=&quot;\nhttp://img375.imageshack.us/img375/2277/vlcsnap2010101915h49m20.png&quot; rel=&quot;nofollow&quot; target=&quot;_NEW&quot;&gt;\nhttp://img375.imageshack.us/img375/2277/vlcsnap2010101915h49m20.png&lt;/a&gt;","torrent":{"xt":"urn:btih:14855e1a9e645bb6d2bc91f7d123328d16793877","amp;dn":"I+Still+Know+What+You+Did+Last+Summer+1998+BRRip+720p+H264+AAC-R","amp;tr":["udp%3A%2F%2Ftracker.openbittorrent.com%3A80","udp%3A%2F%2Fopen.demonii.com%3A1337","udp%3A%2F%2Ftracker.coppersurfer.tk%3A6969","udp%3A%2F%2Fexodus.desync.com%3A6969"],"infoHash":"14855e1a9e645bb6d2bc91f7d123328d16793877","infoHashBuffer":{"type":"Buffer","data":[20,133,94,26,158,100,91,182,210,188,145,247,209,35,50,141,22,121,56,119]},"announce":[],"urlList":[]}}